<svg xmlns="http://www.w3.org/2000/svg" id="Layer_1" enable-background="new 0 0 64 64" viewBox="0 0 64 64"><path d="M50.13,5.45c-0.3-0.02-0.59,0.11-0.78,0.33c-0.26,0.3-0.55,0.56-0.88,0.79c-2.09,1.41-4.94,0.87-6.36-1.2
		c-0.33-0.49-0.56-1.01-0.68-1.56c-0.06-0.32-0.29-0.57-0.59-0.69C40.56,3,40.22,3.03,39.95,3.21L3.82,27.84
		c-0.24,0.16-0.39,0.43-0.41,0.73c-0.02,0.29,0.1,0.59,0.32,0.79c0.26,0.23,0.49,0.5,0.69,0.8c0.69,1.01,0.95,2.23,0.72,3.43
		c-0.23,1.2-0.91,2.24-1.92,2.93c-0.69,0.47-1.49,0.74-2.29,0.77C0.57,37.3,0.25,37.5,0.1,37.82c-0.15,0.31-0.13,0.68,0.07,0.97
		l13.06,19.17c0.17,0.25,0.45,0.4,0.74,0.42c0.3,0.02,0.59-0.1,0.79-0.33c0.26-0.3,0.54-0.56,0.88-0.78
		c2.08-1.42,4.93-0.88,6.36,1.2c0.36,0.52,0.6,1.1,0.71,1.71c0.06,0.32,0.28,0.59,0.58,0.71c0.29,0.13,0.64,0.09,0.91-0.1
		l36.75-25.04c0.25-0.17,0.4-0.44,0.42-0.74c0.02-0.29-0.1-0.59-0.32-0.78c-0.25-0.23-0.48-0.49-0.69-0.8
		c-1.41-2.08-0.88-4.93,1.21-6.35l0.01-0.01c0.51-0.35,1.07-0.59,1.66-0.7c0.32-0.06,0.58-0.28,0.71-0.58
		c0.12-0.3,0.09-0.64-0.1-0.91l-12.96-19C50.7,5.62,50.43,5.46,50.13,5.45z M61.51,24.89c-0.18,0.08-0.36,0.16-0.53,0.26l-0.01,0.01
		c-0.16,0.1-0.34,0.21-0.5,0.32c-0.01,0.01-0.01,0.01-0.01,0.01c-0.42,0.29-0.79,0.61-1.12,0.96c-0.11,0.12-0.21,0.24-0.31,0.36
		c-0.14,0.17-0.27,0.34-0.38,0.52c-0.11,0.18-0.21,0.35-0.31,0.55c-0.19,0.37-0.34,0.75-0.46,1.14l0,0.01
		c-0.06,0.2-0.11,0.41-0.14,0.61c-0.12,0.62-0.14,1.25-0.08,1.86c0.02,0.13,0.03,0.26,0.06,0.39c0.14,0.91,0.48,1.79,1.03,2.61
		c0.07,0.1,0.13,0.17,0.19,0.26l0.01,0.01L24.18,58.46c-0.16-0.37-0.36-0.73-0.6-1.08c-2.02-2.96-6.06-3.73-9.03-1.71
		c-0.12,0.08-0.24,0.18-0.36,0.27l-0.01-0.01l-11.59-17c0.6-0.19,1.18-0.46,1.71-0.83c0.27-0.18,0.53-0.38,0.76-0.61
		c0.24-0.22,0.45-0.45,0.65-0.7c0.66-0.82,1.12-1.8,1.32-2.86c0.19-1.06,0.14-2.14-0.18-3.14c-0.09-0.31-0.2-0.61-0.35-0.89
		c-0.15-0.28-0.3-0.56-0.49-0.83c-0.06-0.09-0.12-0.17-0.19-0.26l0.01-0.01L39.99,5.52c0.15,0.32,0.32,0.63,0.53,0.92
		c0.38,0.56,0.83,1.03,1.33,1.42c0.01-0.01,0.01-0.01,0.01,0.01c0.67,0.54,1.43,0.91,2.22,1.14c0.2,0.06,0.41,0.11,0.61,0.14
		c0.2,0.04,0.4,0.06,0.62,0.09c0.83,0.09,1.67,0,2.49-0.25l0.01-0.01c0.15-0.05,0.3-0.1,0.45-0.16c0.45-0.17,0.89-0.39,1.3-0.68
		c0.13-0.09,0.25-0.18,0.36-0.27L61.51,24.89z"/><path fill="#60bbe9" d="M49.55,8.16c-0.41,0.28-0.84,0.51-1.3,0.68c-0.15,0.05-0.3,0.11-0.45,0.16L47.79,9
		c-0.82,0.25-1.66,0.34-2.49,0.25c-0.22-0.03-0.42-0.05-0.62-0.09c-0.2-0.04-0.41-0.08-0.61-0.14c-0.8-0.23-1.56-0.61-2.22-1.14
		c0-0.01,0-0.01-0.01-0.01c-0.5-0.39-0.95-0.87-1.33-1.42c-0.2-0.29-0.38-0.6-0.53-0.92L5.83,28.81l-0.01,0.01
		c0.07,0.08,0.13,0.17,0.19,0.26c0.18,0.27,0.34,0.55,0.49,0.83c0.15,0.28,0.26,0.58,0.35,0.89c0.32,1,0.38,2.07,0.18,3.14
		c-0.2,1.06-0.65,2.03-1.32,2.86c-0.2,0.25-0.42,0.48-0.65,0.7c-0.23,0.23-0.49,0.43-0.76,0.61c-0.53,0.36-1.11,0.64-1.71,0.83
		l11.59,17l0.01,0.01c0.12-0.09,0.24-0.19,0.36-0.27c2.97-2.02,7.01-1.25,9.03,1.71c0.24,0.35,0.44,0.71,0.6,1.08l34.76-23.69
		l-0.01-0.01c-0.06-0.09-0.12-0.16-0.19-0.26c-0.55-0.81-0.89-1.7-1.03-2.61c-0.02-0.14-0.04-0.26-0.06-0.39
		c-0.06-0.61-0.03-1.25,0.08-1.86c0.04-0.2,0.08-0.41,0.14-0.61l0-0.01c0.12-0.39,0.26-0.77,0.46-1.14c0.09-0.19,0.2-0.38,0.31-0.55
		c0.11-0.18,0.23-0.36,0.38-0.52c0.1-0.13,0.21-0.25,0.31-0.36c0.33-0.35,0.7-0.67,1.12-0.96c0,0,0,0,0.01-0.01
		c0.17-0.11,0.34-0.22,0.5-0.32l0.01-0.01c0.18-0.1,0.35-0.18,0.53-0.26L49.91,7.89C49.8,7.98,49.68,8.07,49.55,8.16z M56.12,28.04
		c-0.02,0.12-0.07,0.24-0.13,0.34c-0.08,0.11-0.16,0.2-0.27,0.28c-0.01,0.01-0.01,0.01-0.01,0.01l-0.19,0.13L20.48,52.36l-0.35,0.24
		c-0.45,0.3-1.04,0.18-1.34-0.25l-0.01-0.01L8.23,36.65c-0.03-0.05-0.06-0.1-0.08-0.15c-0.02-0.05-0.04-0.09-0.04-0.15
		c-0.02-0.03-0.02-0.07-0.02-0.1c-0.02-0.02-0.02-0.05-0.01-0.07c0-0.03-0.01-0.08,0-0.12c-0.01-0.04,0-0.1,0.01-0.14
		c0.03-0.13,0.07-0.24,0.14-0.35c0.07-0.1,0.16-0.19,0.26-0.26l0.01-0.01l35.58-23.95c0.28-0.19,0.63-0.21,0.93-0.09
		c0,0-0.01,0.01,0.01,0.01c0.1,0.04,0.19,0.1,0.26,0.18c0.05,0.05,0.09,0.1,0.14,0.16l10.57,15.69c0.06,0.11,0.12,0.22,0.14,0.35
		C56.14,27.79,56.14,27.92,56.12,28.04z"/><path fill="#51b8e0" d="M49.55,8.14c-0.41,0.28-0.85,0.51-1.3,0.69c-0.15,0.05-0.3,0.11-0.45,0.16L47.79,9
		c-0.81,0.24-1.67,0.32-2.49,0.25c-0.22-0.03-0.42-0.05-0.62-0.09c-0.2-0.04-0.41-0.08-0.61-0.14c-0.79-0.24-1.55-0.62-2.22-1.14
		c0-0.01,0-0.01-0.01-0.01c-0.5-0.41-0.95-0.88-1.33-1.44c-0.2-0.29-0.38-0.6-0.53-0.92L5.82,28.8l0.01,0.01
		c0.07,0.08,0.12,0.16,0.18,0.25c0.18,0.27,0.35,0.55,0.48,0.85c0.15,0.28,0.26,0.58,0.35,0.89c0.32,1,0.38,2.07,0.18,3.14
		c-0.2,1.06-0.65,2.03-1.32,2.86c-0.2,0.25-0.42,0.48-0.65,0.7c-0.24,0.21-0.49,0.41-0.76,0.6c-0.53,0.36-1.11,0.64-1.72,0.83
		l0.01,0.01l11.59,17c0.13-0.1,0.25-0.2,0.37-0.28c2.97-2.02,7.01-1.25,9.03,1.71c0.24,0.35,0.44,0.71,0.6,1.08l34.76-23.68
		l0.01-0.01c-0.06-0.09-0.13-0.17-0.19-0.27c-0.54-0.81-0.89-1.69-1.03-2.59c-0.02-0.14-0.04-0.26-0.06-0.39
		c-0.06-0.61-0.03-1.25,0.08-1.86c0.04-0.2,0.08-0.41,0.14-0.61l0-0.01c0.12-0.39,0.26-0.77,0.46-1.14c0.09-0.19,0.2-0.38,0.31-0.55
		c0.11-0.18,0.23-0.36,0.38-0.52c0.1-0.13,0.21-0.25,0.31-0.36c0.32-0.36,0.71-0.69,1.12-0.97c0,0,0,0,0.01-0.01
		c0.17-0.11,0.33-0.21,0.5-0.31l0.01-0.01c0.17-0.11,0.35-0.19,0.53-0.27l0.01-0.01L49.92,7.87C49.8,7.96,49.68,8.06,49.55,8.14z
		 M58.59,25.58c-0.34,0.15-0.64,0.33-0.95,0.54c-0.61,0.42-1.13,0.94-1.52,1.53l0,0.01c0.03,0.12,0.02,0.25,0,0.37
		c-0.02,0.12-0.07,0.24-0.13,0.34c-0.07,0.1-0.16,0.19-0.26,0.26c-0.01,0.01-0.01,0.01-0.01,0.01l-0.19,0.13c0,0-0.01,0.01,0,0.01
		c-0.7,1.74-0.55,3.79,0.59,5.46l0.16,0.24L24.96,55.81c-0.13-0.33-0.32-0.66-0.54-0.97c-0.95-1.39-2.39-2.24-3.94-2.48l-0.01,0
		l-0.33,0.23c-0.45,0.31-1.03,0.19-1.33-0.24l-0.01-0.01l-0.01,0.01c-0.88,0.12-1.72,0.43-2.5,0.96c-0.1,0.07-0.22,0.16-0.32,0.24
		L5.52,38.22c0.53-0.16,1.06-0.42,1.53-0.74c0.41-0.28,0.78-0.6,1.09-0.98l0.01-0.01c-0.02-0.05-0.04-0.09-0.05-0.14
		c-0.01-0.03-0.02-0.07-0.02-0.1c-0.02-0.02-0.02-0.05-0.01-0.07c0-0.03-0.01-0.08,0-0.12c-0.01-0.04,0-0.1,0.01-0.14
		c0.03-0.13,0.07-0.24,0.14-0.35c0.08-0.11,0.16-0.2,0.27-0.28l0.01-0.01l0.71-0.47c0.14-0.35,0.24-0.71,0.31-1.08
		c0.29-1.54-0.05-3.09-0.93-4.39c-0.05-0.07-0.1-0.15-0.17-0.23L39.21,8.14c0.13,0.28,0.29,0.56,0.47,0.83
		c1,1.47,2.55,2.34,4.19,2.52l0.2-0.14c0.28-0.19,0.64-0.21,0.93-0.07c0,0-0.01,0.01,0.01,0.01c0.1,0.04,0.19,0.1,0.26,0.18
		c0.01,0,0.01,0,0.02,0.01c0.88-0.11,1.74-0.43,2.54-0.96c0.11-0.08,0.23-0.17,0.32-0.24L58.59,25.58z"/><path d="M20.62 35.71c.07.1.12.18.16.27.04.08.07.14.08.19.01.06.01.1-.01.14-.01.03-.03.06-.06.09l-1.66 1.11 3.59 5.33c.02.03.03.07.03.11 0 .05-.03.09-.06.15-.04.05-.1.11-.18.18-.08.07-.19.14-.32.23-.13.09-.24.15-.33.2-.09.05-.18.08-.23.1-.06.02-.11.02-.16 0-.03-.01-.07-.03-.09-.07l-3.59-5.33-1.65 1.12c-.03.02-.07.04-.11.03-.03 0-.07-.02-.12-.06-.04-.03-.1-.07-.15-.14-.05-.06-.11-.15-.18-.24-.07-.1-.13-.19-.16-.27-.04-.08-.07-.14-.08-.19-.01-.06-.01-.1 0-.14.01-.03.04-.06.07-.08l4.65-3.14c.03-.02.07-.02.1-.02.03 0 .08.02.13.05.04.03.1.07.15.14C20.49 35.53 20.55 35.62 20.62 35.71zM22.5 33.91l4.2 6.24c.02.03.04.07.03.11 0 .05-.02.09-.06.15-.04.05-.1.11-.17.18-.08.07-.19.14-.32.23-.13.09-.24.15-.34.21s-.17.08-.23.1c-.06.02-.11.02-.15 0-.04-.01-.08-.03-.09-.07l-4.21-6.23c-.02-.03-.03-.07-.03-.11 0-.05.03-.09.07-.15.04-.05.1-.11.17-.18.08-.07.19-.14.32-.23.13-.09.24-.15.34-.21.08-.05.17-.08.23-.1s.11-.02.16 0C22.45 33.85 22.48 33.88 22.5 33.91zM31.95 35c.06.07.13.17.21.29.06.09.1.16.14.22.04.07.06.12.08.17.02.06.03.1.04.14 0 .05 0 .1-.02.16-.01.07-.05.16-.11.3-.07.13-.16.28-.27.44-.12.16-.27.32-.44.5-.18.17-.38.34-.61.49-.45.3-.91.51-1.36.62-.45.11-.91.11-1.35 0-.44-.1-.87-.32-1.29-.64-.41-.33-.8-.77-1.18-1.32-.38-.56-.64-1.1-.78-1.64-.14-.53-.18-1.05-.11-1.52.07-.48.24-.91.51-1.32.27-.41.63-.77 1.09-1.07.18-.12.37-.23.56-.31.2-.09.38-.15.55-.2.18-.04.35-.08.51-.09.16-.02.28-.02.35 0 .08.02.14.03.17.05.04.02.08.05.12.09.04.04.09.09.14.15.05.06.11.14.17.23.07.1.12.2.16.27.04.08.07.14.09.2 0 .06.01.1 0 .14-.01.03-.03.06-.06.08-.06.04-.14.06-.26.05-.11-.01-.26-.01-.43 0-.18.02-.37.04-.58.1-.21.05-.44.16-.68.32-.26.18-.46.38-.59.64-.14.24-.21.51-.22.81-.01.3.04.61.15.94.12.33.3.67.53 1.02.26.4.53.7.8.93.27.22.54.39.81.47.27.09.54.1.82.05.27-.05.53-.16.79-.34.24-.16.43-.33.57-.5.13-.17.24-.34.32-.49.08-.14.14-.28.18-.39.05-.1.09-.18.13-.2s.07-.04.1-.04c.03 0 .06.02.1.05S31.89 34.93 31.95 35zM38.49 32.19c.03.04.04.08.03.12.01.04-.02.09-.05.14-.04.05-.11.12-.2.19-.08.08-.19.15-.33.25-.22.15-.39.25-.49.3-.11.04-.2.07-.26.06-.07-.01-.13-.03-.18-.06l-4.1-1.78 2.11 3.13c.03.04.04.08.03.12 0 .03-.02.09-.05.14-.04.05-.1.11-.18.18-.08.07-.18.15-.32.23-.13.09-.24.16-.33.2-.09.05-.18.08-.23.1-.07.01-.12.01-.16 0-.04-.01-.07-.03-.1-.07l-4.19-6.22c-.03-.04-.04-.08-.03-.12 0-.05.02-.09.07-.14.04-.05.1-.11.18-.18.07-.06.18-.15.31-.23.14-.09.24-.15.34-.21.1-.04.17-.08.24-.09.06-.02.1-.02.15-.01.03.01.07.03.1.07l1.89 2.81.04-4.11c0-.06 0-.12.01-.17.02-.05.05-.1.09-.16.04-.05.1-.11.19-.17.07-.06.18-.15.32-.23.14-.09.25-.17.34-.21.09-.05.18-.08.23-.1.07-.01.12-.01.16 0 .04.02.07.03.1.07.04.06.06.12.07.21.01.09.02.22.02.41l-.22 3.6 3.98 1.65c.18.09.28.15.33.19C38.44 32.14 38.47 32.17 38.49 32.19zM42.89 28.4c.05.06.11.13.18.24.07.1.11.18.15.26.04.07.06.14.07.19.01.05 0 .09 0 .13-.01.03-.04.06-.07.08l-3.31 2.24c-.11.08-.23.1-.35.09-.12-.01-.23-.1-.33-.25l-3.87-5.75c-.1-.15-.13-.28-.1-.41.03-.11.1-.21.21-.29l3.3-2.22c.03-.02.07-.02.1-.02.03 0 .08.02.12.04.04.03.09.08.14.14.06.07.12.14.19.24.07.1.11.18.15.25.04.08.06.14.07.19.01.05 0 .09 0 .13-.01.03-.03.06-.06.08l-2.36 1.58 1.09 1.61 2-1.34c.02-.02.06-.03.1-.03.04.01.08.02.12.04.04.03.1.07.15.13.05.06.11.14.17.23.07.1.12.19.15.26.04.07.07.13.06.18.01.05.02.09 0 .13-.01.03-.03.06-.06.08l-1.99 1.35 1.26 1.86 2.37-1.6c.03-.02.07-.04.1-.04.04.01.08.02.12.04C42.79 28.29 42.83 28.33 42.89 28.4zM44.93 19.35c.07.1.12.18.17.26.03.07.06.14.07.19 0 .06.01.1 0 .13-.02.05-.03.07-.07.09l-1.65 1.12 3.58 5.32c.03.04.04.07.03.12-.01.04-.03.09-.07.14-.04.05-.1.11-.18.18-.08.07-.18.15-.32.24-.13.08-.24.15-.33.19-.09.05-.18.08-.23.1-.06.02-.11.02-.15.01-.04-.02-.07-.03-.1-.07l-3.58-5.32-1.65 1.12c-.03.02-.07.03-.11.03-.04-.01-.08-.03-.12-.06-.05-.04-.1-.08-.15-.14-.06-.07-.12-.15-.18-.25-.07-.1-.13-.19-.16-.27-.04-.07-.07-.14-.07-.19-.01-.05-.02-.09 0-.13.01-.04.03-.07.07-.09l4.66-3.13c.03-.02.06-.03.1-.03.05 0 .09.02.13.05.04.03.1.07.15.14C44.8 19.16 44.86 19.25 44.93 19.35z"/><path d="M45.27,11.46c-0.08-0.08-0.17-0.14-0.26-0.18c-0.01,0-0.01-0.01-0.01-0.01c-0.3-0.12-0.65-0.1-0.93,0.09L8.49,35.31
		l-0.01,0.01c-0.1,0.07-0.2,0.16-0.26,0.26c-0.07,0.1-0.1,0.22-0.14,0.35c-0.01,0.04-0.02,0.09-0.01,0.14c-0.01,0.04,0,0.08,0,0.12
		c-0.01,0.03,0,0.05,0.01,0.07c0,0.03,0.01,0.07,0.02,0.1c0,0.06,0.02,0.1,0.04,0.15c0.02,0.05,0.05,0.11,0.08,0.15l10.56,15.69
		l0.01,0.01c0.3,0.44,0.89,0.56,1.34,0.25l0.35-0.24l35.04-23.58l0.19-0.13c0,0,0,0,0.01-0.01c0.1-0.07,0.19-0.16,0.27-0.28
		c0.06-0.1,0.11-0.21,0.13-0.34c0.02-0.12,0.03-0.25,0-0.37c-0.03-0.12-0.08-0.24-0.14-0.35L45.4,11.63
		C45.36,11.56,45.31,11.51,45.27,11.46z M53.84,27.6L19.86,50.47l-9.49-14.1l33.97-22.88L53.84,27.6z"/><path fill="#ffcb4c" d="M10.37,36.37l9.49,14.1L53.84,27.6l-9.49-14.11L10.37,36.37z M20.78,35.98c0.04,0.08,0.07,0.14,0.08,0.19
		c0.01,0.06,0.01,0.1-0.01,0.14c-0.01,0.03-0.03,0.06-0.06,0.09l-1.66,1.11l3.59,5.33c0.02,0.03,0.03,0.07,0.03,0.11
		c0,0.05-0.03,0.09-0.06,0.15c-0.04,0.05-0.1,0.11-0.18,0.18c-0.08,0.07-0.19,0.14-0.32,0.23c-0.13,0.09-0.24,0.15-0.33,0.2
		c-0.09,0.05-0.18,0.08-0.23,0.1c-0.06,0.02-0.11,0.02-0.16,0c-0.03-0.01-0.07-0.03-0.09-0.07l-3.59-5.33l-1.65,1.12
		c-0.03,0.02-0.07,0.04-0.11,0.03c-0.03,0-0.07-0.02-0.12-0.06c-0.04-0.03-0.1-0.07-0.15-0.14c-0.05-0.06-0.11-0.15-0.18-0.24
		c-0.07-0.1-0.13-0.19-0.16-0.27c-0.04-0.08-0.07-0.14-0.08-0.19c-0.01-0.06-0.01-0.1,0-0.14c0.01-0.03,0.04-0.06,0.07-0.08
		l4.65-3.14c0.03-0.02,0.07-0.02,0.1-0.02c0.03,0,0.08,0.02,0.13,0.05c0.04,0.03,0.1,0.07,0.15,0.14c0.06,0.07,0.12,0.15,0.18,0.25
		C20.69,35.81,20.74,35.89,20.78,35.98z M26.7,40.15c0.02,0.03,0.04,0.07,0.03,0.11c0,0.05-0.02,0.09-0.06,0.15
		c-0.04,0.05-0.1,0.11-0.17,0.18c-0.08,0.07-0.19,0.14-0.32,0.23c-0.13,0.09-0.24,0.15-0.34,0.21s-0.17,0.08-0.23,0.1
		c-0.06,0.02-0.11,0.02-0.15,0c-0.04-0.01-0.08-0.03-0.09-0.07l-4.21-6.23c-0.02-0.03-0.03-0.07-0.03-0.11
		c0-0.05,0.03-0.09,0.07-0.15c0.04-0.05,0.1-0.11,0.17-0.18c0.08-0.07,0.19-0.14,0.32-0.23c0.13-0.09,0.24-0.15,0.34-0.21
		c0.08-0.05,0.17-0.08,0.23-0.1s0.11-0.02,0.16,0c0.04,0.01,0.07,0.03,0.09,0.07L26.7,40.15z M27.99,36.24
		c0.27,0.22,0.54,0.39,0.81,0.47c0.27,0.09,0.54,0.1,0.82,0.05c0.27-0.05,0.53-0.16,0.79-0.34c0.24-0.16,0.43-0.33,0.57-0.5
		c0.13-0.17,0.24-0.34,0.32-0.49c0.08-0.14,0.14-0.28,0.18-0.39c0.05-0.1,0.09-0.18,0.13-0.2s0.07-0.04,0.1-0.04
		c0.03,0,0.06,0.02,0.1,0.05s0.09,0.08,0.15,0.15c0.06,0.07,0.13,0.17,0.21,0.29c0.06,0.09,0.1,0.16,0.14,0.22
		c0.04,0.07,0.06,0.12,0.08,0.17c0.02,0.06,0.03,0.1,0.04,0.14c0,0.05,0,0.1-0.02,0.16c-0.01,0.07-0.05,0.16-0.11,0.3
		c-0.07,0.13-0.16,0.28-0.27,0.44c-0.12,0.16-0.27,0.32-0.44,0.5c-0.18,0.17-0.38,0.34-0.61,0.49c-0.45,0.3-0.91,0.51-1.36,0.62
		c-0.45,0.11-0.91,0.11-1.35,0c-0.44-0.1-0.87-0.32-1.29-0.64c-0.41-0.33-0.8-0.77-1.18-1.32c-0.38-0.56-0.64-1.1-0.78-1.64
		c-0.14-0.53-0.18-1.05-0.11-1.52c0.07-0.48,0.24-0.91,0.51-1.32c0.27-0.41,0.63-0.77,1.09-1.07c0.18-0.12,0.37-0.23,0.56-0.31
		c0.2-0.09,0.38-0.15,0.55-0.2c0.18-0.04,0.35-0.08,0.51-0.09c0.16-0.02,0.28-0.02,0.35,0c0.08,0.02,0.14,0.03,0.17,0.05
		c0.04,0.02,0.08,0.05,0.12,0.09c0.04,0.04,0.09,0.09,0.14,0.15c0.05,0.06,0.11,0.14,0.17,0.23c0.07,0.1,0.12,0.2,0.16,0.27
		c0.04,0.08,0.07,0.14,0.09,0.2c0,0.06,0.01,0.1,0,0.14c-0.01,0.03-0.03,0.06-0.06,0.08c-0.06,0.04-0.14,0.06-0.26,0.05
		c-0.11-0.01-0.26-0.01-0.43,0c-0.18,0.02-0.37,0.04-0.58,0.1c-0.21,0.05-0.44,0.16-0.68,0.32c-0.26,0.18-0.46,0.38-0.59,0.64
		c-0.14,0.24-0.21,0.51-0.22,0.81c-0.01,0.3,0.04,0.61,0.15,0.94c0.12,0.33,0.3,0.67,0.53,1.02C27.44,35.71,27.71,36.01,27.99,36.24
		z M38.52,32.31c0.01,0.04-0.02,0.09-0.05,0.14c-0.04,0.05-0.11,0.12-0.2,0.19c-0.08,0.08-0.19,0.15-0.33,0.25
		c-0.22,0.15-0.39,0.25-0.49,0.3c-0.11,0.04-0.2,0.07-0.26,0.06c-0.07-0.01-0.13-0.03-0.18-0.06l-4.1-1.78l2.11,3.13
		c0.03,0.04,0.04,0.08,0.03,0.12c0,0.03-0.02,0.09-0.05,0.14c-0.04,0.05-0.1,0.11-0.18,0.18c-0.08,0.07-0.18,0.15-0.32,0.23
		c-0.13,0.09-0.24,0.16-0.33,0.2c-0.09,0.05-0.18,0.08-0.23,0.1c-0.07,0.01-0.12,0.01-0.16,0c-0.04-0.01-0.07-0.03-0.1-0.07
		l-4.19-6.22c-0.03-0.04-0.04-0.08-0.03-0.12c0-0.05,0.02-0.09,0.07-0.14c0.04-0.05,0.1-0.11,0.18-0.18
		c0.07-0.06,0.18-0.15,0.31-0.23c0.14-0.09,0.24-0.15,0.34-0.21c0.1-0.04,0.17-0.08,0.24-0.09c0.06-0.02,0.1-0.02,0.15-0.01
		c0.03,0.01,0.07,0.03,0.1,0.07l1.89,2.81l0.04-4.11c0-0.06,0-0.12,0.01-0.17c0.02-0.05,0.05-0.1,0.09-0.16
		c0.04-0.05,0.1-0.11,0.19-0.17c0.07-0.06,0.18-0.15,0.32-0.23c0.14-0.09,0.25-0.17,0.34-0.21c0.09-0.05,0.18-0.08,0.23-0.1
		c0.07-0.01,0.12-0.01,0.16,0c0.04,0.02,0.07,0.03,0.1,0.07c0.04,0.06,0.06,0.12,0.07,0.21c0.01,0.09,0.02,0.22,0.02,0.41l-0.22,3.6
		l3.98,1.65c0.18,0.09,0.28,0.15,0.33,0.19c0.05,0.04,0.08,0.07,0.1,0.1C38.51,32.23,38.53,32.27,38.52,32.31z M40.2,25.61
		c0.02-0.02,0.06-0.03,0.1-0.03c0.04,0.01,0.08,0.02,0.12,0.04c0.04,0.03,0.1,0.07,0.15,0.13c0.05,0.06,0.11,0.14,0.17,0.23
		c0.07,0.1,0.12,0.19,0.15,0.26c0.04,0.07,0.07,0.13,0.06,0.18c0.01,0.05,0.02,0.09,0,0.13c-0.01,0.03-0.03,0.06-0.06,0.08
		l-1.99,1.35l1.26,1.86l2.37-1.6c0.03-0.02,0.07-0.04,0.1-0.04c0.04,0.01,0.08,0.02,0.12,0.04c0.05,0.04,0.09,0.08,0.15,0.15
		c0.05,0.06,0.11,0.13,0.18,0.24c0.07,0.1,0.11,0.18,0.15,0.26c0.04,0.07,0.06,0.14,0.07,0.19c0.01,0.05,0,0.09,0,0.13
		c-0.01,0.03-0.04,0.06-0.07,0.08l-3.31,2.24c-0.11,0.08-0.23,0.1-0.35,0.09c-0.12-0.01-0.23-0.1-0.33-0.25l-3.87-5.75
		c-0.1-0.15-0.13-0.28-0.1-0.41c0.03-0.11,0.1-0.21,0.21-0.29l3.3-2.22c0.03-0.02,0.07-0.02,0.1-0.02c0.03,0,0.08,0.02,0.12,0.04
		c0.04,0.03,0.09,0.08,0.14,0.14c0.06,0.07,0.12,0.14,0.19,0.24c0.07,0.1,0.11,0.18,0.15,0.25c0.04,0.08,0.06,0.14,0.07,0.19
		c0.01,0.05,0,0.09,0,0.13c-0.01,0.03-0.03,0.06-0.06,0.08l-2.36,1.58l1.09,1.61L40.2,25.61z M45.09,19.61
		c0.03,0.07,0.06,0.14,0.07,0.19c0,0.06,0.01,0.1,0,0.13c-0.02,0.05-0.03,0.07-0.07,0.09l-1.65,1.12l3.58,5.32
		c0.03,0.04,0.04,0.07,0.03,0.12c-0.01,0.04-0.03,0.09-0.07,0.14c-0.04,0.05-0.1,0.11-0.18,0.18c-0.08,0.07-0.18,0.15-0.32,0.24
		c-0.13,0.08-0.24,0.15-0.33,0.19c-0.09,0.05-0.18,0.08-0.23,0.1c-0.06,0.02-0.11,0.02-0.15,0.01c-0.04-0.02-0.07-0.03-0.1-0.07
		l-3.58-5.32l-1.65,1.12c-0.03,0.02-0.07,0.03-0.11,0.03c-0.04-0.01-0.08-0.03-0.12-0.06c-0.05-0.04-0.1-0.08-0.15-0.14
		c-0.06-0.07-0.12-0.15-0.18-0.25c-0.07-0.1-0.13-0.19-0.16-0.27c-0.04-0.07-0.07-0.14-0.07-0.19c-0.01-0.05-0.02-0.09,0-0.13
		c0.01-0.04,0.03-0.07,0.07-0.09l4.66-3.13c0.03-0.02,0.06-0.03,0.1-0.03c0.05,0,0.09,0.02,0.13,0.05c0.04,0.03,0.1,0.07,0.15,0.14
		c0.06,0.07,0.12,0.15,0.19,0.26C44.99,19.45,45.05,19.54,45.09,19.61z"/><path fill="#f7be3d" d="M10.37,36.37l9.49,14.1L53.84,27.6l-9.49-14.11L10.37,36.37z M50.65,27.56L21.04,47.51l-7.56-11.24l29.6-19.96
		L50.65,27.56z"/></svg>